# xmcd
#
# Track frame offsets: 
#        150
#        15012
#        25822
#        46346
#        62161
#        78822
#        89462
#        99307
#        110296
#        124323
#        135143
#        151532
#        161998
#        174228
#        188844
#        209174
#        219183
#        229072
#        242144
#        257518
#
# Disc length: 3617 seconds
#
# Revision: 2
# Processed by: cddbd v1.5.2PL0 Copyright (c) Steve Scherf et al.
# Submitted via: ExactAudioCopyFreeDBPlugin 1.0
#
DISCID=f30e1f14
DTITLE=Patti LaBelle - Patti LaBelle and The Bluebelles:  The Complete
DTITLE=Atlantic Sides Plus
DYEAR=2014
DGENRE=Rhythm and Blues
TTITLE0=Danny Boy
TTITLE1=That's How Heartaches Are Made
TTITLE2=Down the Aisle
TTITLE3=One Phone Call
TTITLE4=Where Are You
TTITLE5=Patti's Prayer
TTITLE6=Groovy Kind of Love
TTITLE7=All or Nothing
TTITLE8=Who Can I Turn To
TTITLE9=You Forgot How to Love
TTITLE10=Unchained Melody
TTITLE11=Ebb Tide
TTITLE12=He
TTITLE13=Try to Remember
TTITLE14=People
TTITLE15=Yesterday
TTITLE16=More
TTITLE17=Over the Rainbow
TTITLE18=I'm Still Waiting
TTITLE19=Family Man
EXTD=
EXTT0=
EXTT1=
EXTT2=
EXTT3=
EXTT4=
EXTT5=
EXTT6=
EXTT7=
EXTT8=
EXTT9=
EXTT10=
EXTT11=
EXTT12=
EXTT13=
EXTT14=
EXTT15=
EXTT16=
EXTT17=
EXTT18=
EXTT19=
PLAYORDER=
